# xmcd
#
# Track frame offsets: 
#        150
#        17138
#        32107
#        48511
#        68672
#        86199
#        102088
#        124709
#        144128
#        164570
#        182066
#        205268
#        222799
#        249390
#        268686
#
# Disc length: 3876 seconds
#
# Revision: 0
# Processed by: cddbd v1.5PL3 Copyright (c) Steve Scherf et al.
# Submitted via: ExactAudioCopy v0.90b4
#
DISCID=d30f220f
DTITLE=Faith Hill - This Kiss - disc 1
DYEAR=2001
DGENRE=Country
TTITLE0=There you'll Be
TTITLE1=This Kiss
TTITLE2=You Give Me Love
TTITLE3=Let Me Let Go
TTITLE4=Love Aren't Like That
TTITLE5=Better Days
TTITLE6=My Wild Fronther
TTITLE7=The Secret Of Life
TTITLE8=Just To Hear You Say That You Love Me
TTITLE9=Me
TTITLE10=I Love You
TTITLE11=The Hark Way
TTITLE12=Someday Stand By Me
TTITLE13=Home Ain't Where His Hear His
TTITLE14=The Women In Me
EXTD=
EXTT0=
EXTT1=
EXTT2=
EXTT3=
EXTT4=
EXTT5=
EXTT6=
EXTT7=
EXTT8=
EXTT9=
EXTT10=
EXTT11=
EXTT12=
EXTT13=
EXTT14=
PLAYORDER=
